<svg id="Layer_1" data-name="Layer 1" xmlns="http://www.w3.org/2000/svg" viewBox="0 0 127.94 19.03"><defs><style>.cls-1{fill:#f3cb5a;}</style></defs><g id="Group_1" data-name="Group 1"><g id="Graphic_elements" data-name="Graphic elements"><path id="Path_60" data-name="Path 60" class="cls-1" d="M10.63.42l2.45,5.13a.75.75,0,0,0,.57.42l5.64.74A.74.74,0,0,1,19.71,8l-4.14,3.91a.76.76,0,0,0-.22.67l1,5.6a.74.74,0,0,1-.59.86.76.76,0,0,1-.49-.08l-5-2.71a.75.75,0,0,0-.71,0l-5,2.71a.74.74,0,0,1-1.08-.78l1.05-5.6a.71.71,0,0,0-.22-.67L.23,8a.73.73,0,0,1,0-1.05.69.69,0,0,1,.43-.22L6.28,6a.74.74,0,0,0,.57-.41L9.3.42a.74.74,0,0,1,1.33,0Z"/></g><g id="Graphic_elements-2" data-name="Graphic elements-2"><path id="Path_60-2" data-name="Path 60-2" class="cls-1" d="M37.63.42l2.45,5.13a.75.75,0,0,0,.57.42l5.64.74A.74.74,0,0,1,46.71,8l-4.14,3.91a.76.76,0,0,0-.22.67l1,5.6a.74.74,0,0,1-.59.86.76.76,0,0,1-.49-.08l-5-2.71a.75.75,0,0,0-.71,0l-5,2.71a.74.74,0,0,1-1.08-.78l1.05-5.6a.71.71,0,0,0-.22-.67L27.23,8a.73.73,0,0,1,0-1.05.69.69,0,0,1,.43-.22L33.28,6a.74.74,0,0,0,.57-.41L36.3.42a.74.74,0,0,1,1.33,0Z"/></g><g id="Graphic_elements-3" data-name="Graphic elements-3"><path id="Path_60-3" data-name="Path 60-3" class="cls-1" d="M64.63.42l2.45,5.13a.75.75,0,0,0,.57.42l5.64.74A.74.74,0,0,1,73.71,8l-4.14,3.91a.76.76,0,0,0-.22.67l1,5.6a.74.74,0,0,1-.59.86.76.76,0,0,1-.49-.08l-5-2.71a.75.75,0,0,0-.71,0l-5,2.71a.74.74,0,0,1-1.08-.78l1-5.6a.71.71,0,0,0-.22-.67L54.23,8a.73.73,0,0,1,0-1.05.69.69,0,0,1,.43-.22L60.28,6a.74.74,0,0,0,.57-.41L63.3.42a.74.74,0,0,1,1.33,0Z"/></g><g id="Graphic_elements-4" data-name="Graphic elements-4"><path id="Path_60-4" data-name="Path 60-4" class="cls-1" d="M91.63.42l2.45,5.13a.75.75,0,0,0,.57.42l5.64.74A.74.74,0,0,1,100.71,8l-4.14,3.91a.76.76,0,0,0-.22.67l1,5.6a.74.74,0,0,1-.59.86.76.76,0,0,1-.49-.08l-5-2.71a.75.75,0,0,0-.71,0l-5,2.71a.74.74,0,0,1-1.08-.78l1-5.6a.71.71,0,0,0-.22-.67L81.23,8a.73.73,0,0,1,0-1.05.69.69,0,0,1,.43-.22L87.28,6a.74.74,0,0,0,.57-.41L90.3.42a.74.74,0,0,1,1.33,0Z"/></g><g id="Graphic_elements-5" data-name="Graphic elements-5"><path id="Path_60-5" data-name="Path 60-5" class="cls-1" d="M118.63.42l2.45,5.13a.75.75,0,0,0,.57.42l5.64.74A.74.74,0,0,1,127.71,8l-4.14,3.91a.76.76,0,0,0-.22.67l1,5.6a.74.74,0,0,1-.59.86.76.76,0,0,1-.49-.08l-5-2.71a.75.75,0,0,0-.71,0l-5,2.71a.74.74,0,0,1-1.08-.78l1-5.6a.71.71,0,0,0-.22-.67L108.23,8a.73.73,0,0,1,0-1.05.69.69,0,0,1,.43-.22L114.28,6a.74.74,0,0,0,.57-.41L117.3.42a.74.74,0,0,1,1.33,0Z"/></g></g></svg>
